{
  "accessors": [
    {
      "bufferView": 2,
      "componentType": 5126,
      "count": 3483,
      "max": [
        2.166865348815918,
        0.9489759802818298,
        1.843704342842102
      ],
      "min": [
        1.6112278699874878,
        -0.8618701696395874,
        1.5518957376480103
      ],
      "type": "VEC3"
    },
    {
      "bufferView": 2,
      "byteOffset": 41796,
      "componentType": 5126,
      "count": 3483,
      "max": [
        0.9971601963043213,
        0.9986472725868225,
        0.9997882843017578
      ],
      "min": [
        -0.9992609620094299,
        -0.998969316482544,
        -0.999832272529602
      ],
      "type": "VEC3"
    },
    {
      "bufferView": 1,
      "componentType": 5125,
      "count": 4041,
      "type": "SCALAR"
    },
    {
      "bufferView": 2,
      "byteOffset": 83592,
      "componentType": 5126,
      "count": 3483,
      "max": [
        0.2496228814125061,
        0.9489759802818298,
        1.843704342842102
      ],
      "min": [
        -0.3060145676136017,
        -0.8618701696395874,
        1.5518957376480103
      ],
      "type": "VEC3"
    },
    {
      "bufferView": 2,
      "byteOffset": 125388,
      "componentType": 5126,
      "count": 3483,
      "max": [
        0.9971601963043213,
        0.9986472725868225,
        0.9997882843017578
      ],
      "min": [
        -0.9992609620094299,
        -0.998969316482544,
        -0.999832272529602
      ],
      "type": "VEC3"
    },
    {
      "bufferView": 1,
      "byteOffset": 16164,
      "componentType": 5125,
      "count": 4041,
      "type": "SCALAR"
    },
    {
      "bufferView": 4,
      "componentType": 5126,
      "count": 17,
      "max": [
        3.7451014518737793,
        3.740760087966919,
        3.7448301315307617,
        0.0,
        3.72914981842041,
        3.7451014518737793,
        3.736726999282837,
        0.0,
        3.7451014518737793,
        5.029421572544379e-07,
        3.7451019287109375,
        0.0,
        8.086522102355957,
        7.1694111824035645,
        6.7049736976623535,
        1.0
      ],
      "min": [
        -3.736058473587036,
        -3.729388952255249,
        -3.7449655532836914,
        0.0,
        -3.7407596111297607,
        -3.7449655532836914,
        -0.17005634307861328,
        0.0,
        -3.7451019287109375,
        -5.058358851783851e-07,
        6.559226051194855e-08,
        0.0,
        -7.127191543579102,
        -7.021416187286377,
        -7.399982452392578,
        1.0
      ],
      "type": "MAT4"
    },
    {
      "bufferView": 4,
      "byteOffset": 1088,
      "componentType": 5126,
      "count": 17,
      "max": [
        3.7451014518737793,
        3.740760087966919,
        3.7448301315307617,
        0.0,
        3.72914981842041,
        3.7451014518737793,
        3.736726999282837,
        0.0,
        3.7451014518737793,
        5.029421572544379e-07,
        3.7451019287109375,
        0.0,
        6.263210296630859,
        2.22739839553833,
        0.013095950707793236,
        1.0
      ],
      "min": [
        -3.736058473587036,
        -3.729388952255249,
        -3.7449655532836914,
        0.0,
        -3.7407596111297607,
        -3.7449655532836914,
        -0.17005634307861328,
        0.0,
        -3.7451019287109375,
        -5.058358851783851e-07,
        6.559226051194855e-08,
        0.0,
        -6.263208866119385,
        -2.6431727409362793,
        -6.263209819793701,
        1.0
      ],
      "type": "MAT4"
    },
    {
      "bufferView": 0,
      "componentType": 5123,
      "count": 3483,
      "type": "VEC4"
    },
    {
      "bufferView": 3,
      "componentType": 5126,
      "count": 3483,
      "max": [
        1.0,
        0.49790388345718384,
        0.2880750596523285,
        0.09435808658599854
      ],
      "min": [
        0.39013779163360596,
        0.0,
        0.0,
        0.0
      ],
      "type": "VEC4"
    },
    {
      "bufferView": 0,
      "byteOffset": 27864,
      "componentType": 5123,
      "count": 3483,
      "type": "VEC4"
    },
    {
      "bufferView": 3,
      "byteOffset": 55728,
      "componentType": 5126,
      "count": 3483,
      "max": [
        1.0,
        0.49790388345718384,
        0.2880750596523285,
        0.09435808658599854
      ],
      "min": [
        0.39013779163360596,
        0.0,
        0.0,
        0.0
      ],
      "type": "VEC4"
    }
  ],
  "asset": {
    "extras": {
      "author": "headwernekwer (https://sketchfab.com/bonsol.ivanray2020)",
      "license": "CC-BY-4.0 (http://creativecommons.org/licenses/by/4.0/)",
      "source": "https://sketchfab.com/3d-models/super-hot-playerenemy-rigged-mabey-ba80c2e70d274a0eb9debf72a246deb2",
      "title": "SUPER HOT PLAYER/ENEMY (rigged mabey)"
    },
    "generator": "Sketchfab-15.4.0",
    "version": "2.0"
  },
  "bufferViews": [
    {
      "buffer": 0,
      "byteLength": 55728,
      "byteStride": 8,
      "name": "shortBufferViews",
      "target": 34962
    },
    {
      "buffer": 0,
      "byteLength": 32328,
      "byteOffset": 55728,
      "name": "floatBufferViews",
      "target": 34963
    },
    {
      "buffer": 0,
      "byteLength": 167184,
      "byteOffset": 88056,
      "byteStride": 12,
      "name": "floatBufferViews",
      "target": 34962
    },
    {
      "buffer": 0,
      "byteLength": 111456,
      "byteOffset": 255240,
      "byteStride": 16,
      "name": "floatBufferViews",
      "target": 34962
    },
    {
      "buffer": 0,
      "byteLength": 2176,
      "byteOffset": 366696,
      "name": "floatBufferViews"
    }
  ],
  "buffers": [
    {
      "byteLength": 368872,
      "uri": "scene.bin"
    }
  ],
  "materials": [
    {
      "doubleSided": true,
      "name": "Material.003",
      "pbrMetallicRoughness": {
        "baseColorFactor": [
          0.8,
          0.0,
          0.0047622,
          1.0
        ],
        "metallicFactor": 0.0,
        "roughnessFactor": 0.5
      }
    },
    {
      "doubleSided": true,
      "name": "Material.002",
      "pbrMetallicRoughness": {
        "baseColorFactor": [
          0.0,
          0.0,
          0.0,
          1.0
        ],
        "metallicFactor": 0.0,
        "roughnessFactor": 0.5
      }
    }
  ],
  "meshes": [
    {
      "name": "Object_0",
      "primitives": [
        {
          "attributes": {
            "JOINTS_0": 8,
            "NORMAL": 1,
            "POSITION": 0,
            "WEIGHTS_0": 9
          },
          "indices": 2,
          "material": 0,
          "mode": 4
        }
      ]
    },
    {
      "name": "Object_1",
      "primitives": [
        {
          "attributes": {
            "JOINTS_0": 10,
            "NORMAL": 4,
            "POSITION": 3,
            "WEIGHTS_0": 11
          },
          "indices": 5,
          "material": 1,
          "mode": 4
        }
      ]
    }
  ],
  "nodes": [
    {
      "children": [
        1
      ],
      "matrix": [
        1.0,
        0.0,
        0.0,
        0.0,
        0.0,
        2.220446049250313e-16,
        -1.0,
        0.0,
        0.0,
        1.0,
        2.220446049250313e-16,
        0.0,
        0.0,
        0.0,
        0.0,
        1.0
      ],
      "name": "Sketchfab_model"
    },
    {
      "children": [
        2
      ],
      "name": "root"
    },
    {
      "children": [
        3,
        24
      ],
      "matrix": [
        1.0,
        0.0,
        0.0,
        0.0,
        0.0,
        2.220446049250313e-16,
        1.0,
        0.0,
        0.0,
        -1.0,
        2.220446049250313e-16,
        0.0,
        0.0,
        0.0,
        0.0,
        1.0
      ],
      "name": "GLTF_SceneRootNode"
    },
    {
      "children": [
        4
      ],
      "matrix": [
        0.2670154571533203,
        0.0,
        0.0,
        0.0,
        0.0,
        0.2670154571533203,
        0.0,
        0.0,
        0.0,
        0.0,
        0.2670154571533203,
        0.0,
        1.879028081893921,
        0.0,
        1.672373652458191,
        1.0
      ],
      "name": "Armature.001_19"
    },
    {
      "children": [
        5,
        7,
        6
      ],
      "name": "GLTF_created_0"
    },
    {
      "children": [
        8,
        18,
        21
      ],
      "name": "GLTF_created_0_rootJoint"
    },
    {
      "name": "Object.002_18"
    },
    {
      "mesh": 0,
      "name": "Object_7",
      "skin": 0
    },
    {
      "children": [
        9
      ],
      "name": "Bone_11"
    },
    {
      "children": [
        10,
        12,
        15
      ],
      "name": "Bone.001_10",
      "rotation": [
        6.626569870604726e-08,
        4.292688515761256e-08,
        0.020312625914812088,
        0.9997937083244324
      ],
      "scale": [
        0.9999999403953552,
        1.0,
        1.0
      ],
      "translation": [
        0.0,
        1.0,
        0.0
      ]
    },
    {
      "children": [
        11
      ],
      "name": "Bone.002_3",
      "rotation": [
        7.41449923680193e-09,
        -3.2690696372128514e-08,
        -0.13331541419029236,
        0.9910736680030823
      ],
      "translation": [
        -1.5126788710517758e-14,
        1.3552194833755493,
        5.3290705182007514e-15
      ]
    },
    {
      "name": "Bone.003_2",
      "rotation": [
        -8.438335363791793e-09,
        4.259737451661749e-08,
        0.12866175174713135,
        0.9916885495185852
      ],
      "translation": [
        -8.381914717858763e-09,
        0.29375526309013367,
        -8.049116928532385e-16
      ]
    },
    {
      "children": [
        13
      ],
      "name": "Bone.004_6",
      "rotation": [
        1.8800399459451e-08,
        -4.2607375405623316e-08,
        -0.7377895712852478,
        0.6750307679176331
      ],
      "scale": [
        0.9999999403953552,
        1.0,
        1.0
      ],
      "translation": [
        -1.5126788710517758e-14,
        1.3552194833755493,
        5.3290705182007514e-15
      ]
    },
    {
      "children": [
        14
      ],
      "name": "Bone.005_5",
      "rotation": [
        0.16623516380786896,
        -0.21895429491996765,
        -0.5438567996025085,
        0.7928711771965027
      ],
      "scale": [
        1.0,
        1.0,
        0.9999999403953552
      ],
      "translation": [
        -7.078052988163108e-08,
        0.9148037433624268,
        2.4424906541753444e-14
      ]
    },
    {
      "name": "Bone.006_4",
      "rotation": [
        0.8262426853179932,
        0.026683269068598747,
        0.010058153420686722,
        0.5625922083854675
      ],
      "scale": [
        1.0000001192092896,
        1.0000001192092896,
        1.000000238418579
      ],
      "translation": [
        -1.4846894380582398e-08,
        0.9957473874092102,
        1.192093321833454e-07
      ]
    },
    {
      "children": [
        16
      ],
      "name": "Bone.007_9",
      "rotation": [
        -1.3634061879486126e-08,
        -4.806346254326854e-08,
        0.7251476049423218,
        0.6885934472084045
      ],
      "scale": [
        1.0000001192092896,
        1.0000001192092896,
        1.0
      ],
      "translation": [
        -1.4881265109067954e-08,
        1.3552194833755493,
        4.010573103274077e-15
      ]
    },
    {
      "children": [
        17
      ],
      "name": "Bone.008_8",
      "rotation": [
        0.1554477959871292,
        0.25246793031692505,
        0.5824512839317322,
        0.7568661570549011
      ],
      "scale": [
        1.0000001192092896,
        1.0000001192092896,
        1.0
      ],
      "translation": [
        2.1582827969268692e-07,
        0.5970265865325928,
        -2.4900654455040083e-14
      ]
    },
    {
      "name": "Bone.009_7",
      "rotation": [
        0.7923651933670044,
        0.0776476338505745,
        0.2573273181915283,
        0.5476412773132324
      ],
      "scale": [
        1.0000001192092896,
        1.000000238418579,
        1.000000238418579
      ],
      "translation": [
        9.198106454277877e-08,
        1.0479342937469482,
        1.0285020482037142e-14
      ]
    },
    {
      "children": [
        19
      ],
      "name": "Bone.010_14",
      "rotation": [
        -0.47657471895217896,
        0.5223759412765503,
        0.47657468914985657,
        0.5223758816719055
      ],
      "scale": [
        0.9999998807907104,
        1.0,
        0.9999999403953552
      ]
    },
    {
      "children": [
        20
      ],
      "name": "Bone.014_13",
      "rotation": [
        -0.6985268592834473,
        0.21593068540096283,
        0.19173507392406464,
        0.6547304391860962
      ],
      "scale": [
        0.9999999403953552,
        1.0,
        1.0
      ],
      "translation": [
        -1.928013429924923e-15,
        0.3303171396255493,
        1.8587474892584055e-09
      ]
    },
    {
      "name": "Bone.015_12",
      "rotation": [
        -0.017676861956715584,
        -0.0006350636249408126,
        -0.06895490735769272,
        0.9974629878997803
      ],
      "scale": [
        0.9999999403953552,
        1.0,
        1.0
      ],
      "translation": [
        1.862663578933166e-09,
        1.5773749351501465,
        -1.8607742902077007e-08
      ]
    },
    {
      "children": [
        22
      ],
      "name": "Bone.011_17",
      "rotation": [
        -0.48300209641456604,
        -0.5164387226104736,
        -0.48300206661224365,
        0.5164387822151184
      ],
      "scale": [
        1.0,
        1.0,
        1.0000001192092896
      ]
    },
    {
      "children": [
        23
      ],
      "name": "Bone.012_16",
      "rotation": [
        -0.6889150738716125,
        -0.11260933429002762,
        0.09988319873809814,
        0.709040641784668
      ],
      "scale": [
        1.0,
        1.0,
        1.0000001192092896
      ],
      "translation": [
        7.355227538141662e-15,
        0.3724362552165985,
        7.632710502404047e-17
      ]
    },
    {
      "name": "Bone.013_15",
      "rotation": [
        0.1189713254570961,
        0.009745843708515167,
        0.5989388823509216,
        0.7918478846549988
      ],
      "scale": [
        1.0,
        0.9999998807907104,
        0.9999999403953552
      ],
      "translation": [
        1.4901168299275014e-08,
        1.461510419845581,
        -4.921183946460239e-11
      ]
    },
    {
      "children": [
        25
      ],
      "matrix": [
        0.2670154571533203,
        0.0,
        0.0,
        0.0,
        0.0,
        0.2670154571533203,
        0.0,
        0.0,
        0.0,
        0.0,
        0.2670154571533203,
        0.0,
        -0.038214292377233505,
        0.0,
        1.672373652458191,
        1.0
      ],
      "name": "Armature_37"
    },
    {
      "children": [
        26,
        28,
        27
      ],
      "name": "GLTF_created_1"
    },
    {
      "children": [
        29,
        39,
        42
      ],
      "name": "GLTF_created_1_rootJoint"
    },
    {
      "name": "Object.001_36"
    },
    {
      "mesh": 1,
      "name": "Object_28",
      "skin": 1
    },
    {
      "children": [
        30
      ],
      "name": "Bone_29"
    },
    {
      "children": [
        31,
        33,
        36
      ],
      "name": "Bone.001_28",
      "rotation": [
        6.626569870604726e-08,
        4.292688515761256e-08,
        0.020312625914812088,
        0.9997937083244324
      ],
      "scale": [
        0.9999999403953552,
        1.0,
        1.0
      ],
      "translation": [
        0.0,
        1.0,
        0.0
      ]
    },
    {
      "children": [
        32
      ],
      "name": "Bone.002_21",
      "rotation": [
        7.41449923680193e-09,
        -3.2690696372128514e-08,
        -0.13331541419029236,
        0.9910736680030823
      ],
      "translation": [
        -1.5126788710517758e-14,
        1.3552194833755493,
        5.3290705182007514e-15
      ]
    },
    {
      "name": "Bone.003_20",
      "rotation": [
        -8.438335363791793e-09,
        4.259737451661749e-08,
        0.12866175174713135,
        0.9916885495185852
      ],
      "translation": [
        -8.381914717858763e-09,
        0.29375526309013367,
        -8.049116928532385e-16
      ]
    },
    {
      "children": [
        34
      ],
      "name": "Bone.004_24",
      "rotation": [
        1.8800399459451e-08,
        -4.2607375405623316e-08,
        -0.7377895712852478,
        0.6750307679176331
      ],
      "scale": [
        0.9999999403953552,
        1.0,
        1.0
      ],
      "translation": [
        -1.5126788710517758e-14,
        1.3552194833755493,
        5.3290705182007514e-15
      ]
    },
    {
      "children": [
        35
      ],
      "name": "Bone.005_23",
      "rotation": [
        0.16623516380786896,
        -0.21895429491996765,
        -0.5438567996025085,
        0.7928711771965027
      ],
      "scale": [
        1.0,
        1.0,
        0.9999999403953552
      ],
      "translation": [
        -7.078052988163108e-08,
        0.9148037433624268,
        2.4424906541753444e-14
      ]
    },
    {
      "name": "Bone.006_22",
      "rotation": [
        0.8262426853179932,
        0.026683269068598747,
        0.010058153420686722,
        0.5625922083854675
      ],
      "scale": [
        1.0000001192092896,
        1.0000001192092896,
        1.000000238418579
      ],
      "translation": [
        -1.4846894380582398e-08,
        0.9957473874092102,
        1.192093321833454e-07
      ]
    },
    {
      "children": [
        37
      ],
      "name": "Bone.007_27",
      "rotation": [
        -1.3634061879486126e-08,
        -4.806346254326854e-08,
        0.7251476049423218,
        0.6885934472084045
      ],
      "scale": [
        1.0000001192092896,
        1.0000001192092896,
        1.0
      ],
      "translation": [
        -1.4881265109067954e-08,
        1.3552194833755493,
        4.010573103274077e-15
      ]
    },
    {
      "children": [
        38
      ],
      "name": "Bone.008_26",
      "rotation": [
        0.1554477959871292,
        0.25246793031692505,
        0.5824512839317322,
        0.7568661570549011
      ],
      "scale": [
        1.0000001192092896,
        1.0000001192092896,
        1.0
      ],
      "translation": [
        2.1582827969268692e-07,
        0.5970265865325928,
        -2.4900654455040083e-14
      ]
    },
    {
      "name": "Bone.009_25",
      "rotation": [
        0.7923651933670044,
        0.0776476338505745,
        0.2573273181915283,
        0.5476412773132324
      ],
      "scale": [
        1.0000001192092896,
        1.000000238418579,
        1.000000238418579
      ],
      "translation": [
        9.198106454277877e-08,
        1.0479342937469482,
        1.0285020482037142e-14
      ]
    },
    {
      "children": [
        40
      ],
      "name": "Bone.010_32",
      "rotation": [
        -0.47657471895217896,
        0.5223759412765503,
        0.47657468914985657,
        0.5223758816719055
      ],
      "scale": [
        0.9999998807907104,
        1.0,
        0.9999999403953552
      ]
    },
    {
      "children": [
        41
      ],
      "name": "Bone.014_31",
      "rotation": [
        -0.6985268592834473,
        0.21593068540096283,
        0.19173507392406464,
        0.6547304391860962
      ],
      "scale": [
        0.9999999403953552,
        1.0,
        1.0
      ],
      "translation": [
        -1.928013429924923e-15,
        0.3303171396255493,
        1.8587474892584055e-09
      ]
    },
    {
      "name": "Bone.015_30",
      "rotation": [
        -0.017676861956715584,
        -0.0006350636249408126,
        -0.06895490735769272,
        0.9974629878997803
      ],
      "scale": [
        0.9999999403953552,
        1.0,
        1.0
      ],
      "translation": [
        1.862663578933166e-09,
        1.5773749351501465,
        -1.8607742902077007e-08
      ]
    },
    {
      "children": [
        43
      ],
      "name": "Bone.011_35",
      "rotation": [
        -0.48300209641456604,
        -0.5164387226104736,
        -0.48300206661224365,
        0.5164387822151184
      ],
      "scale": [
        1.0,
        1.0,
        1.0000001192092896
      ]
    },
    {
      "children": [
        44
      ],
      "name": "Bone.012_34",
      "rotation": [
        -0.6889150738716125,
        -0.11260933429002762,
        0.09988319873809814,
        0.709040641784668
      ],
      "scale": [
        1.0,
        1.0,
        1.0000001192092896
      ],
      "translation": [
        7.355227538141662e-15,
        0.3724362552165985,
        7.632710502404047e-17
      ]
    },
    {
      "name": "Bone.013_33",
      "rotation": [
        0.1189713254570961,
        0.009745843708515167,
        0.5989388823509216,
        0.7918478846549988
      ],
      "scale": [
        1.0,
        0.9999998807907104,
        0.9999999403953552
      ],
      "translation": [
        1.4901168299275014e-08,
        1.461510419845581,
        -4.921183946460239e-11
      ]
    }
  ],
  "scene": 0,
  "scenes": [
    {
      "name": "Sketchfab_Scene",
      "nodes": [
        0
      ]
    }
  ],
  "skins": [
    {
      "inverseBindMatrices": 6,
      "joints": [
        5,
        8,
        9,
        10,
        11,
        12,
        13,
        14,
        15,
        16,
        17,
        18,
        19,
        20,
        21,
        22,
        23
      ],
      "skeleton": 5
    },
    {
      "inverseBindMatrices": 7,
      "joints": [
        26,
        29,
        30,
        31,
        32,
        33,
        34,
        35,
        36,
        37,
        38,
        39,
        40,
        41,
        42,
        43,
        44
      ],
      "skeleton": 26
    }
  ]
}
